<?xml version="1.0" ?><svg xmlns="http://www.w3.org/2000/svg" width="161" height="51" viewBox="0 0 161 51" fill="#000000"> <path d="M30.1227 15.1964C34.8504 11.3467 32.4866 2.16126 23.5714 2.16126H13.0351C12.765 2.16126 12.4948 1.95865 12.4273 1.68849L12.0896 0.607853C11.9545 0.202615 11.6168 0 11.2116 0H0C0.675397 0.675397 1.01309 1.8911 1.01309 1.8911L15.399 50.3846H17.7629L10.8739 28.029H13.1702C13.4404 28.029 13.643 28.164 13.7105 28.4342L14.2509 29.9201C14.3184 30.1227 14.521 30.2578 14.7236 30.2578H26.1379C37.0793 30.1902 37.6196 17.02 30.1227 15.1964ZM4.11992 5.60578H11.9545C12.1571 5.60578 12.2922 5.74086 12.3597 5.87594L12.8325 7.15921C12.9001 7.36183 13.1027 7.49691 13.3728 7.49691H23.5038C23.8415 7.49691 24.1792 7.56444 24.5169 7.69952C24.8546 7.8346 25.1923 8.03721 25.4625 8.30737C25.7326 8.57753 26.0028 8.84768 26.1379 9.25292C26.3405 9.59062 26.408 9.99587 26.4756 10.4686C26.4756 10.9414 26.4755 11.2791 26.3405 11.6844C26.2054 12.022 26.0027 12.3597 25.7326 12.6299C25.4624 12.9001 25.1923 13.1027 24.8546 13.2378C24.5169 13.3729 24.1792 13.4404 23.8415 13.4404H14.521C14.3859 13.4404 14.1833 13.3053 14.1833 13.1702L13.7105 11.6844C13.643 11.4817 13.5079 11.3467 13.3053 11.3467H5.94348L4.11992 5.60578ZM28.4342 23.031C28.2316 23.4363 27.9614 23.774 27.6913 24.0441C27.3536 24.3143 27.0159 24.5169 26.6782 24.652C26.2729 24.7871 25.9352 24.8546 25.5975 24.8546H18.9786C18.776 24.8546 18.5734 24.7195 18.5734 24.5169L18.0331 22.8284C17.9656 22.5582 17.7629 22.4232 17.4928 22.4232H9.38801L8.23985 18.776L7.69952 16.9525H13.0351C13.1702 16.9525 13.3053 17.02 13.3728 17.1551L13.643 17.9656C13.7106 18.2357 13.9807 18.3708 14.2509 18.3708H25.2598C25.7326 18.3708 26.1378 18.4383 26.5431 18.5734C26.9483 18.7085 27.3536 18.9111 27.6237 19.2488C27.9614 19.519 28.2316 19.8567 28.4342 20.2619C28.6368 20.6671 28.7719 21.0724 28.7719 21.6127C28.7043 22.153 28.6368 22.6258 28.4342 23.031Z" fill="#000000"/> <path d="M50.5194 22.8284C50.5194 23.4362 50.4519 23.909 50.2493 24.4493C50.0466 24.9221 49.7764 25.3949 49.3712 25.7326C48.966 26.0703 48.4932 26.408 47.9529 26.6106C47.4126 26.8132 46.7372 26.8808 45.9942 26.8808C45.2513 26.8808 44.5759 26.7457 44.0356 26.5431C43.4953 26.3405 42.9549 26.0703 42.6172 25.6651C42.212 25.3274 41.9419 24.8546 41.7392 24.3818C41.5366 23.909 41.4691 23.3687 41.4691 22.7608V10.9414H36.3361V22.7608C36.3361 23.9766 36.6062 25.0572 37.079 26.0703C37.5518 27.0159 38.2947 27.8939 39.1727 28.5693C40.0507 29.2447 41.0638 29.785 42.2795 30.1227C43.4953 30.4604 44.7785 30.663 46.1293 30.663C47.6152 30.663 48.966 30.4604 50.1142 30.0551C51.3299 29.6499 52.343 29.1096 53.1534 28.4342C54.0315 27.7588 54.6393 26.8808 55.1121 25.9352C55.5849 24.9897 55.7875 23.909 55.7875 22.7608V10.9414H50.587V22.8284H50.5194Z" fill="#000000"/> <path d="M73.0114 22.3553C73.5518 21.9501 73.957 21.5448 74.2947 21.072C74.6324 20.5993 74.9026 20.0589 75.1052 19.4511C75.3078 18.8432 75.3753 18.2354 75.3753 17.56C75.3753 16.6144 75.1727 15.7364 74.7675 14.9259C74.3623 14.1155 73.8219 13.4401 73.079 12.8998C72.3361 12.3594 71.5256 11.8867 70.5125 11.549C69.4994 11.2113 68.4863 11.0762 67.2706 11.0762H57.5449V30.325H62.7455V23.9087H66.0549L69.9046 30.1899H75.8481L71.1879 23.2333C71.9308 23.0307 72.4711 22.693 73.0114 22.3553ZM69.9722 18.5731C69.8371 18.9108 69.5669 19.1809 69.2968 19.3835C69.0266 19.5862 68.6889 19.7888 68.3512 19.9239C68.0135 20.0589 67.6083 20.1265 67.1355 20.1265H62.813V14.8584H67.1355C67.5408 14.8584 67.946 14.9259 68.3512 15.061C68.6889 15.1961 69.0266 15.3987 69.2968 15.6013C69.5669 15.804 69.7695 16.1416 69.9722 16.4118C70.1072 16.7495 70.2423 17.0872 70.2423 17.4924C70.2423 17.8977 70.1748 18.2354 69.9722 18.5731Z" fill="#000000"/> <path d="M102.456 10.9414L94.6892 27.4211L88.6781 19.519L96.4452 10.9414H90.4342L81.8566 20.5996V10.9414H76.6561V30.1902H81.8566V26.6106L85.3011 22.8284L90.7043 30.1902H93.4059H96.8504H98.8766L100.295 27.1509H109.615L111.034 30.1902H116.504L107.387 10.9414H102.456ZM102.051 23.3012L104.888 16.8849L107.724 23.3012H102.051Z" fill="#000000"/> <path d="M122.381 11.0078H117.248V30.1891H131.702V26.3393H122.381V11.0078Z" fill="#000000"/> <path d="M154.061 17.897C153.791 17.019 153.386 16.2085 152.845 15.4655C152.305 14.7226 151.697 14.0472 150.954 13.4394C150.211 12.8315 149.401 12.2912 148.523 11.8859C147.645 11.4807 146.632 11.143 145.619 10.8729C144.605 10.6702 143.525 10.5352 142.377 10.5352C141.229 10.5352 140.148 10.6702 139.135 10.8729C138.122 11.0755 137.109 11.4132 136.231 11.8859C135.353 12.2912 134.542 12.8315 133.799 13.4394C133.056 14.0472 132.448 14.7226 131.908 15.4655C131.368 16.2085 130.962 17.019 130.692 17.897C130.422 18.775 130.287 19.653 130.287 20.5986C130.287 21.5441 130.422 22.4221 130.692 23.3001C130.962 24.1782 131.368 24.9886 131.908 25.7316C132.448 26.4745 133.056 27.1499 133.799 27.7578C134.542 28.3656 135.353 28.9059 136.231 29.3112C137.109 29.7164 138.122 30.0541 139.135 30.3243C140.148 30.5944 141.229 30.662 142.377 30.662C143.457 30.662 144.538 30.5269 145.619 30.3243C146.632 30.0541 147.645 29.7164 148.523 29.3112C149.401 28.9059 150.279 28.3656 150.954 27.7578C151.697 27.1499 152.305 26.4745 152.845 25.7316C153.386 24.9886 153.791 24.1782 154.061 23.3001C154.331 22.4221 154.466 21.5441 154.466 20.5986C154.534 19.653 154.331 18.7074 154.061 17.897ZM148.793 23.03C148.455 23.7729 147.915 24.4483 147.307 24.9886C146.699 25.529 145.956 26.0017 145.078 26.2719C144.2 26.6096 143.322 26.7447 142.309 26.7447C141.364 26.7447 140.418 26.6096 139.608 26.2719C138.73 25.9342 137.987 25.529 137.379 24.9886C136.771 24.4483 136.231 23.7729 135.893 23.03C135.555 22.2871 135.353 21.4766 135.353 20.531C135.353 19.653 135.555 18.8425 135.893 18.032C136.231 17.2891 136.771 16.6137 137.379 16.0734C137.987 15.5331 138.73 15.0603 139.608 14.7901C140.486 14.4524 141.364 14.3174 142.309 14.3174C143.322 14.3174 144.2 14.4524 145.078 14.7901C145.956 15.1278 146.632 15.5331 147.307 16.0734C147.915 16.6137 148.455 17.2891 148.793 18.032C149.131 18.775 149.333 19.5855 149.333 20.531C149.333 21.4766 149.198 22.2871 148.793 23.03Z" fill="#000000"/> <path d="M156.759 13.4416H157.57L158.583 15.1977H159.934L158.786 13.3065C159.326 13.1039 159.731 12.6987 159.731 11.9557C159.731 10.74 158.786 10.4023 157.502 10.4023H155.611V15.2652H156.759V13.4416ZM156.759 11.3479H157.502C158.043 11.3479 158.516 11.483 158.516 11.8882C158.516 12.361 158.11 12.4285 157.502 12.4285H156.759V11.3479Z" fill="#000000"/> <path d="M160.001 15.6699H155.611V16.4129H160.001V15.6699Z" fill="#000000"/> <path d="M49.3692 45.2518C48.8964 45.2518 48.4912 45.1842 48.0859 44.9816C47.6807 44.779 47.2754 44.5764 47.0053 44.2387C46.6676 43.901 46.465 43.4957 46.2624 43.0229C46.0597 42.5502 45.9922 42.0098 45.9922 41.402C45.9922 40.7941 46.0597 40.2538 46.2624 39.7135C46.465 39.2407 46.7351 38.7679 47.0053 38.4302C47.343 38.0925 47.7482 37.8224 48.1535 37.6198C48.6262 37.4171 49.099 37.3496 49.5718 37.3496C49.9771 37.3496 50.3148 37.4172 50.5849 37.4847C50.9226 37.5522 51.1928 37.6873 51.4629 37.8899L51.6655 37.5522H52.0708L52.1383 40.2538H51.6655C51.598 39.9837 51.5304 39.7135 51.3954 39.3758C51.2603 39.0381 51.1252 38.8355 50.9901 38.5653C50.7875 38.2952 50.5849 38.1601 50.3823 38.025C50.1796 37.8899 49.9095 37.8224 49.5718 37.8224C49.2341 37.8224 48.8964 37.8899 48.6263 38.025C48.3561 38.1601 48.0859 38.4302 47.8833 38.7004C47.6807 38.9706 47.5456 39.3758 47.4105 39.781C47.2755 40.2538 47.2079 40.7266 47.2079 41.2669C47.2079 41.7397 47.2755 42.2125 47.4105 42.6177C47.5456 43.023 47.6807 43.3606 47.9509 43.6983C48.1535 44.036 48.4236 44.2387 48.7613 44.4413C49.099 44.6439 49.4367 44.7114 49.842 44.7114C50.1121 44.7114 50.3823 44.6439 50.6524 44.5764C50.9226 44.5088 51.1252 44.3737 51.2603 44.2387C51.4629 44.1036 51.598 43.901 51.7331 43.6983C51.8681 43.4957 52.0032 43.2931 52.0708 43.0229L52.476 43.2256C52.1383 43.9685 51.7331 44.5088 51.2603 44.8465C50.6525 45.0491 50.1121 45.2518 49.3692 45.2518Z" fill="#000000"/> <path d="M58.1525 42.3472C58.1525 42.7525 58.085 43.0902 57.9499 43.4279C57.8148 43.7656 57.6798 44.1033 57.4771 44.3734C57.207 44.6436 56.9368 44.8462 56.5991 44.9813C56.2614 45.1164 55.9237 45.1839 55.5185 45.1839C55.1808 45.1839 54.8431 45.1164 54.5729 44.9813C54.2352 44.8462 53.9651 44.6436 53.7625 44.441C53.5598 44.1708 53.3572 43.9007 53.2221 43.563C53.0871 43.2253 53.0195 42.82 53.0195 42.4148C53.0195 41.6043 53.2897 40.9289 53.7625 40.3886C54.2352 39.8483 54.9107 39.5781 55.6536 39.5781C56.3965 39.5781 57.0044 39.8483 57.4771 40.321C57.8824 40.8614 58.1525 41.5368 58.1525 42.3472ZM57.0044 42.3472C57.0044 42.0771 57.0044 41.8069 56.9368 41.4692C56.8693 41.1991 56.8018 40.9289 56.6667 40.7263C56.5316 40.5237 56.3965 40.3211 56.1939 40.186C55.9913 40.0509 55.7887 39.9833 55.5185 39.9833C55.2483 39.9833 54.9782 40.0509 54.8431 40.186C54.6405 40.3211 54.5054 40.5237 54.3703 40.7263C54.2352 40.9289 54.1677 41.1991 54.1001 41.4692C54.0326 41.7394 54.0326 42.0096 54.0326 42.2797C54.0326 42.6174 54.0326 42.9551 54.1001 43.2253C54.1677 43.4954 54.2352 43.7656 54.3703 44.0357C54.5054 44.2383 54.6405 44.441 54.8431 44.5761C55.0457 44.7111 55.2483 44.7787 55.5185 44.7787C55.9913 44.7787 56.329 44.576 56.5991 44.1033C56.8693 43.698 57.0044 43.1577 57.0044 42.3472Z" fill="#000000"/> <path d="M67.944 45.0483H65.3775V44.7106C65.4451 44.7106 65.5126 44.7106 65.6477 44.7106C65.7152 44.7106 65.7828 44.7106 65.8503 44.6431C65.9179 44.6431 66.0529 44.5756 66.0529 44.4405C66.1205 44.3729 66.1205 44.2379 66.1205 44.1028V41.3336C66.1205 40.9284 66.0529 40.6583 65.8503 40.4556C65.6477 40.253 65.4451 40.1855 65.2424 40.1855C65.0398 40.1855 64.9048 40.1855 64.7697 40.253C64.6346 40.3206 64.4995 40.3881 64.3644 40.4556C64.2294 40.5232 64.1618 40.5907 64.0943 40.7258C64.0268 40.7933 63.9592 40.8609 63.9592 40.9284V43.9677C63.9592 44.1028 63.9592 44.1703 64.0267 44.3054C64.0943 44.3729 64.1618 44.4405 64.2293 44.508C64.2969 44.508 64.3645 44.5756 64.432 44.5756C64.4995 44.5756 64.5671 44.5756 64.7021 44.6431V44.9808H62.2032V44.6431C62.2707 44.6431 62.3383 44.6431 62.4733 44.6431C62.5409 44.6431 62.6084 44.6431 62.6759 44.5756C62.7435 44.5756 62.8786 44.508 62.8786 44.3729C62.9461 44.3054 62.9461 44.1703 62.9461 44.0352V41.2661C62.9461 40.8609 62.8786 40.5907 62.6759 40.3881C62.4733 40.1855 62.2707 40.1179 62.0681 40.1179C61.8655 40.1179 61.7304 40.1179 61.5953 40.1855C61.4602 40.253 61.3251 40.3206 61.1901 40.3881C61.055 40.4556 60.9875 40.5232 60.9199 40.6582C60.8524 40.7258 60.7848 40.8609 60.7848 40.8609V43.9002C60.7848 44.0352 60.7848 44.1028 60.8524 44.2379C60.9199 44.3054 60.9875 44.3729 61.055 44.4405C61.1226 44.508 61.1901 44.508 61.2576 44.508C61.3252 44.508 61.3927 44.508 61.5278 44.5756V44.9133H58.9613V44.5756C59.0288 44.5756 59.0964 44.5756 59.2314 44.5756C59.299 44.5756 59.3665 44.5756 59.434 44.508C59.5016 44.508 59.6367 44.4405 59.6367 44.3054C59.7042 44.2379 59.7042 44.1028 59.7042 43.9677V40.6582C59.7042 40.5232 59.7042 40.4556 59.6367 40.3206C59.5691 40.253 59.5016 40.1179 59.434 40.1179C59.3665 40.0504 59.2989 40.0504 59.1639 39.9829C59.0963 39.9829 58.9613 39.9153 58.8262 39.9153V39.5776L60.5822 39.4425L60.6498 39.5101V40.253H60.7173C60.7849 40.1855 60.9199 40.0504 61.055 39.9153C61.1901 39.7803 61.3252 39.7127 61.3927 39.6452C61.5278 39.5776 61.6628 39.5101 61.8655 39.4425C62.0681 39.375 62.2707 39.375 62.4733 39.375C62.811 39.375 63.0812 39.4425 63.3513 39.6452C63.6215 39.8478 63.7566 40.0504 63.8916 40.3206C64.0267 40.1855 64.1618 40.1179 64.2293 39.9829C64.2969 39.9153 64.432 39.7802 64.6346 39.7127C64.7697 39.6452 64.9048 39.5776 65.1074 39.5101C65.31 39.4425 65.5126 39.4425 65.7152 39.4425C66.188 39.4425 66.5257 39.5776 66.7959 39.9153C67.066 40.1855 67.2011 40.6583 67.2011 41.2661V43.9677C67.2011 44.1028 67.2011 44.1703 67.2686 44.3054C67.3362 44.3729 67.4037 44.4405 67.4713 44.508C67.5388 44.508 67.6063 44.5756 67.7414 44.5756C67.809 44.5756 67.944 44.5756 68.0116 44.6431V45.0483H67.944Z" fill="#000000"/> <path d="M73.4162 40.3886C73.6189 40.6587 73.8215 40.9289 73.889 41.2666C74.0241 41.6043 74.0916 42.0095 74.0916 42.4148C74.0916 42.82 74.0241 43.2253 73.889 43.563C73.7539 43.9007 73.5513 44.1708 73.3487 44.441C73.0785 44.7111 72.8084 44.8462 72.5382 44.9813C72.2681 45.1164 71.9304 45.1839 71.5927 45.1839C71.255 45.1839 70.9848 45.1164 70.7822 45.0488C70.5796 44.9813 70.4445 44.9137 70.3094 44.7787H70.2419V46.3996C70.2419 46.5347 70.2419 46.6698 70.3094 46.7373C70.3769 46.8049 70.4445 46.8724 70.512 46.9399C70.5796 46.9399 70.7147 47.0075 70.8497 47.0075C70.9848 47.0075 71.1199 47.075 71.255 47.075V47.4127H68.2832V47.075C68.4183 47.075 68.4858 47.075 68.6209 47.075C68.756 47.075 68.8235 47.075 68.8911 47.0075C69.0262 46.9399 69.0937 46.9399 69.0937 46.8049C69.1612 46.7373 69.1613 46.6022 69.1613 46.4672V40.8614C69.1613 40.7263 69.1612 40.6588 69.0937 40.5237C69.0261 40.4561 68.9586 40.3211 68.8911 40.2535C68.8235 40.186 68.756 40.186 68.6209 40.186C68.4858 40.186 68.4183 40.1184 68.2832 40.1184V39.7807L70.1068 39.6456L70.1743 39.7132V40.321H70.2419C70.4445 40.1184 70.6471 39.9158 70.9173 39.7807C71.1874 39.6457 71.4576 39.5781 71.7278 39.5781C72.0654 39.5781 72.3356 39.6457 72.6058 39.7807C73.011 39.9834 73.2136 40.186 73.4162 40.3886ZM72.5382 44.1708C72.6733 43.9682 72.8084 43.698 72.8759 43.4279C72.9435 43.1577 73.011 42.82 73.011 42.4148C73.011 42.1446 73.011 41.8745 72.9435 41.6043C72.8759 41.3342 72.8084 41.064 72.6733 40.8614C72.5382 40.6588 72.4032 40.4561 72.2005 40.3886C71.9979 40.2535 71.7953 40.186 71.4576 40.186C71.1874 40.186 70.9848 40.2535 70.7822 40.3886C70.5796 40.5237 70.4445 40.6588 70.3094 40.7938V43.9007C70.3094 43.9682 70.3769 44.1033 70.4445 44.1708C70.512 44.3059 70.5796 44.3734 70.7147 44.441C70.8497 44.5085 70.9173 44.5761 71.0524 44.6436C71.1874 44.7111 71.3225 44.7111 71.5251 44.7111C71.7278 44.7111 71.9304 44.6436 72.133 44.5761C72.2681 44.5761 72.4032 44.3734 72.5382 44.1708Z" fill="#000000"/> <path d="M79.8983 44.981C79.7632 45.0485 79.5606 45.1161 79.4255 45.1161C79.2904 45.1836 79.1554 45.1836 79.0203 45.1836C78.7501 45.1836 78.5475 45.1161 78.3449 44.981C78.2098 44.8459 78.0747 44.6433 78.0072 44.4407C77.8046 44.7108 77.5344 44.9134 77.2643 45.0485C76.9941 45.1836 76.6564 45.2512 76.3187 45.2512C75.9135 45.2512 75.5758 45.1161 75.3056 44.9135C75.0355 44.6433 74.9004 44.3731 74.9004 43.9679C74.9004 43.7653 74.9004 43.5627 74.9679 43.4276C75.0355 43.2925 75.103 43.0899 75.2381 43.0223C75.3056 42.8873 75.4407 42.8197 75.5758 42.7522C75.7109 42.6846 75.8459 42.6171 75.981 42.5496C76.1161 42.482 76.4538 42.3469 76.9941 42.2119C77.4669 42.0768 77.8046 41.9417 78.0072 41.8066V41.2663C78.0072 41.1988 78.0072 41.1312 78.0072 40.9961C78.0072 40.8611 77.9397 40.726 77.8721 40.5909C77.8046 40.4558 77.6695 40.3208 77.602 40.2532C77.4669 40.1857 77.2642 40.1181 77.0616 40.1181C76.9265 40.1181 76.724 40.1181 76.5889 40.1857C76.4538 40.2532 76.3187 40.3207 76.3187 40.3883C76.3187 40.4558 76.3187 40.5909 76.3862 40.726C76.4538 40.8611 76.4538 40.9961 76.4538 41.1312C76.4538 41.2663 76.3863 41.4014 76.2512 41.4689C76.1161 41.604 75.981 41.604 75.7784 41.604C75.5758 41.604 75.4407 41.5365 75.3731 41.4014C75.3056 41.2663 75.2381 41.1312 75.2381 40.9961C75.2381 40.8611 75.3056 40.6585 75.4407 40.5234C75.5758 40.3883 75.7109 40.2532 75.9135 40.1181C76.0486 40.0506 76.2512 39.9155 76.5213 39.848C76.7239 39.7804 76.9941 39.7129 77.1967 39.7129C77.4669 39.7129 77.737 39.7129 78.0072 39.7804C78.2098 39.848 78.4125 39.9155 78.6151 40.0506C78.8177 40.1857 78.9528 40.3883 79.0203 40.5909C79.0878 40.7935 79.1554 41.1312 79.1554 41.4689C79.1554 42.0092 79.1554 42.4145 79.1554 42.8197C79.1554 43.225 79.1554 43.6302 79.1554 44.103C79.1554 44.238 79.1554 44.3731 79.2229 44.4407C79.2904 44.5082 79.358 44.5758 79.4255 44.6433C79.4931 44.6433 79.5606 44.7108 79.6957 44.7108C79.8308 44.7108 79.8983 44.7108 80.0334 44.7108V44.981H79.8983ZM78.0072 42.1443C77.6695 42.2119 77.4669 42.3469 77.1967 42.4145C76.9941 42.482 76.724 42.6171 76.5889 42.7522C76.3863 42.8873 76.2512 43.0223 76.1836 43.1574C76.0485 43.2925 76.0485 43.4951 76.0485 43.7653C76.0485 44.0354 76.1161 44.3056 76.2512 44.4407C76.3863 44.5757 76.5889 44.6433 76.859 44.6433C77.1292 44.6433 77.3318 44.5757 77.5344 44.4407C77.737 44.3056 77.8721 44.1705 78.0072 43.9679V42.1443Z" fill="#000000"/> <path d="M86.245 45.0491H83.6785V44.7114C83.746 44.7114 83.8811 44.7114 83.9486 44.7114C84.0162 44.7114 84.1513 44.7115 84.2188 44.6439C84.2864 44.6439 84.4214 44.5764 84.4214 44.4413C84.489 44.3737 84.489 44.2387 84.489 44.1036V41.402C84.489 40.9968 84.4214 40.7266 84.2188 40.524C84.0162 40.3214 83.8136 40.1863 83.5434 40.1863C83.3408 40.1863 83.2057 40.1863 83.0031 40.2538C82.8005 40.3214 82.7329 40.3889 82.5978 40.4565C82.4628 40.524 82.3953 40.6591 82.3277 40.7266C82.2602 40.7941 82.1926 40.9292 82.1926 40.9292V43.9685C82.1926 44.1036 82.1926 44.1711 82.2602 44.2387C82.3277 44.3062 82.3952 44.3737 82.4628 44.4413C82.5303 44.5088 82.5979 44.5088 82.7329 44.5088C82.8005 44.5088 82.9356 44.5088 83.0031 44.5764V44.9141H80.4366V44.5764C80.5041 44.5764 80.5717 44.5764 80.7067 44.5764C80.7743 44.5764 80.8418 44.5764 80.9094 44.5088C80.9769 44.5088 81.112 44.4413 81.112 44.3062C81.1795 44.2387 81.1795 44.1036 81.1795 43.9685V40.7266C81.1795 40.5915 81.1795 40.524 81.112 40.3889C81.0444 40.2538 80.9769 40.1863 80.9094 40.1188C80.8418 40.0512 80.7743 40.0512 80.6392 40.0512C80.5717 40.0512 80.4366 40.0512 80.369 39.9837V39.646L82.1251 39.5109L82.1926 39.5784V40.3214C82.2602 40.2538 82.3952 40.1187 82.5303 39.9837C82.6654 39.8486 82.8005 39.7811 82.868 39.7135C83.0031 39.646 83.1382 39.5784 83.3408 39.5109C83.5434 39.4434 83.746 39.4434 83.9486 39.4434C84.489 39.4434 84.8267 39.5784 85.0968 39.9161C85.367 40.2538 85.4345 40.6591 85.4345 41.1994V43.9685C85.4345 44.1036 85.4345 44.1711 85.502 44.2387C85.5696 44.3062 85.6372 44.3737 85.7047 44.4413C85.7722 44.5088 85.8398 44.5088 85.9073 44.5088C85.9748 44.5088 86.0424 44.5088 86.1774 44.5088V45.0491H86.245Z" fill="#000000"/> <path d="M86.5179 46.8057C86.5179 46.6031 86.5854 46.468 86.6529 46.4004C86.7205 46.2654 86.8556 46.1978 86.9906 46.1978C87.1257 46.1978 87.1933 46.1978 87.2608 46.2654C87.3284 46.3329 87.3959 46.3329 87.4634 46.4004C87.531 46.468 87.5985 46.5355 87.666 46.6031C87.7336 46.6706 87.8011 46.8057 87.8011 46.8057C88.0037 46.7382 88.2064 46.468 88.4765 46.0628C88.7467 45.6575 88.8818 45.3198 89.0168 44.9821C88.6791 44.1041 88.3415 43.3612 88.0713 42.6858C87.8011 42.0104 87.531 41.335 87.1933 40.5921C87.1257 40.457 86.9906 40.3219 86.8556 40.1868C86.7205 40.0517 86.5179 40.0517 86.3828 39.9842V39.6465H88.8142V40.0517C88.6791 40.0517 88.5441 40.0517 88.409 40.1193C88.2739 40.1868 88.2063 40.1868 88.2063 40.2544C88.2063 40.2544 88.2063 40.3219 88.2063 40.3894C88.2063 40.457 88.2739 40.5245 88.2739 40.5245C88.409 40.8622 88.6116 41.4025 88.8817 42.0779C89.1519 42.7533 89.3545 43.2936 89.5571 43.6989C89.6922 43.2936 89.8948 42.8884 90.0299 42.4832C90.2325 42.0779 90.3676 41.6051 90.6378 40.9973C90.6378 40.9297 90.7053 40.8622 90.7729 40.7271C90.8404 40.592 90.8404 40.5245 90.8404 40.3894C90.8404 40.3219 90.7729 40.1868 90.5702 40.1193C90.4352 40.0517 90.2326 39.9842 90.0975 39.9842V39.6465H92.0561V39.9842C91.921 39.9842 91.786 40.0517 91.6509 40.1868C91.4483 40.3219 91.3132 40.457 91.2456 40.6596C90.8404 41.6727 90.4352 42.5507 90.0975 43.3612C89.7598 44.1716 89.4896 44.7795 89.3545 45.1847C89.1519 45.6575 88.9493 46.0628 88.7467 46.3329C88.5441 46.6031 88.409 46.8057 88.2063 47.0083C88.0713 47.1434 87.8687 47.2785 87.7336 47.2785C87.5985 47.346 87.4634 47.346 87.3283 47.346C87.0582 47.346 86.8556 47.2785 86.6529 47.1434C86.5854 47.1434 86.5179 46.9408 86.5179 46.8057Z" fill="#000000"/> <path d="M100.23 45.0501H96.5831V44.6449C96.7182 44.6449 96.8533 44.6449 97.0559 44.5773C97.2586 44.5773 97.4612 44.5098 97.5287 44.5098C97.6638 44.4422 97.7313 44.4422 97.7989 44.3072C97.8664 44.2396 97.8664 44.1045 97.8664 43.9695V40.1872H96.5156V39.7145H96.7858C97.191 39.7145 97.5287 39.6469 97.7989 39.5118C98.1366 39.3768 98.3392 39.2417 98.4743 39.0391H98.947C98.947 39.2417 98.947 39.5118 98.947 39.8495C98.947 40.1872 98.947 40.4574 98.947 40.66V43.8344C98.947 43.9695 98.947 44.1045 99.0146 44.1721C99.0821 44.2396 99.1497 44.3747 99.2847 44.3747C99.3523 44.4422 99.5549 44.4422 99.7575 44.5098C99.9601 44.5098 100.095 44.5773 100.23 44.5773V45.0501Z" fill="#000000"/> <path d="M106.372 42.6177C106.372 43.023 106.304 43.3606 106.169 43.6983C106.034 44.036 105.831 44.3062 105.629 44.5088C105.359 44.779 105.088 44.9816 104.751 45.1167C104.413 45.2517 104.075 45.3193 103.738 45.3193C103.332 45.3193 102.995 45.2517 102.657 45.1167C102.319 44.9816 102.049 44.779 101.846 44.5088C101.644 44.2387 101.441 43.901 101.306 43.4957C101.171 43.0905 101.104 42.6852 101.104 42.1449C101.104 40.8617 101.509 39.781 102.252 38.903C102.995 38.025 104.008 37.4847 105.291 37.3496L105.359 37.8224L104.886 37.8899C104.075 38.1601 103.535 38.4978 103.062 39.0381C102.657 39.5784 102.387 40.1863 102.252 40.9967C102.589 40.7266 102.86 40.524 103.197 40.4564C103.467 40.3214 103.805 40.3214 104.143 40.3214C104.751 40.3214 105.223 40.524 105.696 40.9967C106.169 41.3344 106.372 41.8748 106.372 42.6177ZM105.223 42.7528C105.223 42.1449 105.088 41.7397 104.818 41.3344C104.548 40.9292 104.21 40.7941 103.738 40.7941C103.467 40.7941 103.197 40.8617 102.995 40.9292C102.792 40.9968 102.522 41.1994 102.319 41.402C102.319 41.4695 102.319 41.5371 102.319 41.6721C102.319 41.8072 102.319 41.9423 102.319 42.0098C102.319 42.8203 102.454 43.4957 102.724 43.9685C102.995 44.4413 103.332 44.7114 103.805 44.7114C104.21 44.7114 104.548 44.5088 104.818 44.1711C105.088 43.901 105.223 43.3606 105.223 42.7528Z" fill="#000000"/> <path d="M111.168 45.0501H107.521V44.6449C107.656 44.6449 107.791 44.6449 107.993 44.5773C108.196 44.5098 108.399 44.5098 108.466 44.5098C108.601 44.4422 108.669 44.4422 108.736 44.3072C108.804 44.2396 108.804 44.1045 108.804 43.9695V40.1872H107.453V39.7145H107.723C108.129 39.7145 108.466 39.6469 108.736 39.5118C109.074 39.3768 109.277 39.2417 109.412 39.0391H109.885C109.885 39.2417 109.885 39.5118 109.885 39.8495C109.885 40.1872 109.885 40.4574 109.885 40.66V43.8344C109.885 43.9695 109.885 44.1045 109.952 44.1721C110.02 44.2396 110.087 44.3747 110.222 44.3747C110.29 44.4422 110.492 44.4422 110.695 44.5098C110.898 44.5098 111.033 44.5773 111.168 44.5773V45.0501Z" fill="#000000"/> <path d="M117.315 42.6177C117.315 43.023 117.247 43.3606 117.112 43.6983C116.977 44.036 116.775 44.3062 116.572 44.5088C116.302 44.779 116.032 44.9816 115.694 45.1167C115.356 45.2517 115.019 45.3193 114.681 45.3193C114.276 45.3193 113.938 45.2517 113.6 45.1167C113.263 44.9816 112.992 44.779 112.79 44.5088C112.587 44.2387 112.385 43.901 112.249 43.4957C112.114 43.0905 112.047 42.6852 112.047 42.1449C112.047 40.8617 112.452 39.781 113.195 38.903C113.938 38.025 114.951 37.4847 116.234 37.3496L116.302 37.8224L115.829 37.8899C115.019 38.1601 114.478 38.4978 114.006 39.0381C113.6 39.5784 113.33 40.1863 113.195 40.9967C113.533 40.7266 113.803 40.524 114.141 40.4564C114.411 40.3214 114.748 40.3214 115.086 40.3214C115.694 40.3214 116.167 40.524 116.64 40.9967C117.112 41.3344 117.315 41.8748 117.315 42.6177ZM116.167 42.7528C116.167 42.1449 116.032 41.7397 115.762 41.3344C115.491 40.9292 115.154 40.7941 114.681 40.7941C114.411 40.7941 114.141 40.8617 113.938 40.9292C113.735 40.9968 113.465 41.1994 113.263 41.402C113.263 41.4695 113.263 41.5371 113.263 41.6721C113.263 41.8072 113.263 41.9423 113.263 42.0098C113.263 42.8203 113.398 43.4957 113.668 43.9685C113.938 44.4413 114.276 44.7114 114.748 44.7114C115.154 44.7114 115.491 44.5088 115.762 44.1711C116.032 43.901 116.167 43.3606 116.167 42.7528Z" fill="#000000"/> <path d="M94.4173 42.9556C94.7157 42.9556 94.9576 42.7137 94.9576 42.4153C94.9576 42.1169 94.7157 41.875 94.4173 41.875C94.1189 41.875 93.877 42.1169 93.877 42.4153C93.877 42.7137 94.1189 42.9556 94.4173 42.9556Z" fill="#000000"/> <path d="M119.544 42.9556C119.843 42.9556 120.085 42.7137 120.085 42.4153C120.085 42.1169 119.843 41.875 119.544 41.875C119.246 41.875 119.004 42.1169 119.004 42.4153C119.004 42.7137 119.246 42.9556 119.544 42.9556Z" fill="#000000"/> </svg>