<?xml version="1.0" encoding="UTF-8"?> <svg xmlns="http://www.w3.org/2000/svg" width="174" height="44" viewBox="0 0 174 44" fill="none"> <path d="M150.5 23.9619H144.329L142.932 19.238H132.5L131.102 23.9619H125.272L132.738 0H143.034L150.5 23.9619ZM137.716 1.71156L134.034 14.1033H141.398L137.716 1.71156Z" fill="black"></path> <path d="M115.917 9.72168L125.258 23.9619H118.303L111.996 14.2744L109.235 17.4922V23.9619H103.439V0H109.235V9.27668L117.042 0H124.235L115.917 9.72168Z" fill="black"></path> <path d="M100.046 23.9619H94.251V0H100.046V23.9619Z" fill="black"></path> <path d="M86.3023 15.3698L91.8592 23.9619H84.9728L79.8932 16.0887H77.5409V23.9619H71.7454V0H82.3136C84.9955 0 87.1432 0.753088 88.7569 2.25927C90.3705 3.76544 91.1774 5.6938 91.1774 8.04435C91.1774 9.71027 90.7455 11.1936 89.8819 12.4944C89.041 13.7724 87.8478 14.7309 86.3023 15.3698ZM82.3136 5.13469H77.5409V10.7829H82.3136C83.1773 10.7829 83.8705 10.5204 84.3932 9.99553C84.9159 9.47065 85.1773 8.79744 85.1773 7.97589C85.1773 7.15434 84.9159 6.48112 84.3932 5.95624C83.8705 5.40854 83.1773 5.13469 82.3136 5.13469Z" fill="black"></path> <path d="M62.7244 23.9619H56.9289V5.13469H49.9402V0H69.7131V5.13469H62.7244V23.9619Z" fill="black"></path> <path d="M48.2251 23.9619H31.8613V0H48.2251V5.13469H37.6568V9.4136H47.8842V14.5483H37.6568V18.8272H48.2251V23.9619Z" fill="black"></path> <path d="M27.773 0V23.9619H22.3184V1.7458L19.2502 23.9619H8.98871L5.95459 1.7458V23.9619H0.5V0H11.1706L14.2047 22.2161L17.2729 0H27.773Z" fill="black"></path> <path d="M149.023 42.4106V26.2627H150.378V42.7642H147.692L137.749 26.6163V42.7642H136.394V26.2627H139.08L149.023 42.4106Z" fill="black"></path> <path d="M118.628 40.5482C116.951 38.9138 116.112 36.9021 116.112 34.5134C116.112 32.1246 116.951 30.1129 118.628 28.4785C120.306 26.8441 122.378 26.0269 124.846 26.0269C127.313 26.0269 129.386 26.8441 131.063 28.4785C132.741 30.1129 133.579 32.1246 133.579 34.5134C133.579 36.9021 132.741 38.9138 131.063 40.5482C129.386 42.1826 127.313 42.9999 124.846 42.9999C122.378 42.9999 120.306 42.1826 118.628 40.5482ZM119.62 29.3743C118.201 30.7573 117.491 32.4703 117.491 34.5134C117.491 36.5564 118.201 38.2773 119.62 39.676C121.04 41.059 122.781 41.7505 124.846 41.7505C126.91 41.7505 128.652 41.059 130.071 39.676C131.491 38.2773 132.2 36.5564 132.2 34.5134C132.2 32.4703 131.491 30.7573 130.071 29.3743C128.652 27.9756 126.91 27.2763 124.846 27.2763C122.781 27.2763 121.04 27.9756 119.62 29.3743Z" fill="black"></path> <path d="M113.32 42.7642H111.966V26.2627H113.32V42.7642Z" fill="black"></path> <path d="M104.165 42.7642H102.786V27.4885H96.8831V26.2627H110.068V27.4885H104.165V42.7642Z" fill="black"></path> <path d="M82.8354 40.5482C81.158 38.9138 80.3193 36.9021 80.3193 34.5134C80.3193 32.1246 81.158 30.1129 82.8354 28.4785C84.5127 26.8441 86.5852 26.0269 89.0529 26.0269C90.8109 26.0269 92.3672 26.4826 93.722 27.3941C95.0929 28.2899 96.101 29.4215 96.7461 30.7887L95.4881 31.3073C94.9236 30.0972 94.0688 29.1229 92.9237 28.3842C91.7786 27.6456 90.4883 27.2763 89.0529 27.2763C86.9884 27.2763 85.2466 27.9756 83.8273 29.3743C82.408 30.7573 81.6983 32.4703 81.6983 34.5134C81.6983 36.5564 82.408 38.2773 83.8273 39.676C85.2466 41.059 86.9884 41.7505 89.0529 41.7505C90.4883 41.7505 91.7786 41.3811 92.9237 40.6425C94.0849 39.8881 94.9397 38.9059 95.4881 37.6958L96.7461 38.238C96.101 39.6053 95.0929 40.7446 93.722 41.6562C92.3672 42.552 90.8109 42.9999 89.0529 42.9999C86.5852 42.9999 84.5127 42.1826 82.8354 40.5482Z" fill="black"></path> <path d="M64.2598 36.7765V26.2627H65.6146V36.7765C65.6146 38.2381 66.1145 39.4325 67.1145 40.3597C68.1306 41.2869 69.4289 41.7506 71.0095 41.7506C72.6062 41.7506 73.9045 41.2869 74.9045 40.3597C75.9045 39.4325 76.4044 38.2381 76.4044 36.7765V26.2627H77.7592V36.7765C77.7592 38.5996 77.1222 40.0926 75.848 41.2555C74.59 42.4185 72.9772 43 71.0095 43C69.0418 43 67.4209 42.4185 66.1468 41.2555C64.8888 40.0926 64.2598 38.5996 64.2598 36.7765Z" fill="black"></path> <path d="M53.153 42.7642H47.4678V26.2627H53.153C55.5884 26.2627 57.6206 27.0563 59.2496 28.6436C60.8785 30.2152 61.693 32.1718 61.693 34.5135C61.693 36.8551 60.8785 38.8196 59.2496 40.4069C57.6206 41.9784 55.5884 42.7642 53.153 42.7642ZM48.8226 27.4885V41.5384H53.1288C55.1771 41.5384 56.8868 40.8705 58.2577 39.5346C59.6286 38.1831 60.314 36.5094 60.314 34.5135C60.314 32.5176 59.6286 30.8517 58.2577 29.5159C56.8868 28.1643 55.1771 27.4885 53.1288 27.4885H48.8226Z" fill="black"></path> <path d="M29.7016 40.5482C28.0242 38.9138 27.1855 36.9021 27.1855 34.5134C27.1855 32.1246 28.0242 30.1129 29.7016 28.4785C31.3789 26.8441 33.4514 26.0269 35.9191 26.0269C38.3867 26.0269 40.4592 26.8441 42.1366 28.4785C43.8139 30.1129 44.6526 32.1246 44.6526 34.5134C44.6526 36.9021 43.8139 38.9138 42.1366 40.5482C40.4592 42.1826 38.3867 42.9999 35.9191 42.9999C33.4514 42.9999 31.3789 42.1826 29.7016 40.5482ZM30.6935 29.3743C29.2742 30.7573 28.5645 32.4703 28.5645 34.5134C28.5645 36.5564 29.2742 38.2773 30.6935 39.676C32.1128 41.059 33.8546 41.7505 35.9191 41.7505C37.9835 41.7505 39.7254 41.059 41.1447 39.676C42.564 38.2773 43.2736 36.5564 43.2736 34.5134C43.2736 32.4703 42.564 30.7573 41.1447 29.3743C39.7254 27.9756 37.9835 27.2763 35.9191 27.2763C33.8546 27.2763 32.1128 27.9756 30.6935 29.3743Z" fill="black"></path> <path d="M20.5492 35.4564L25.799 42.7642H24.1297L18.9041 35.4564H15.2269V42.7642H13.8721V26.2627H20.4283C21.8798 26.2627 23.0733 26.7027 24.0088 27.5828C24.9603 28.4629 25.4361 29.5551 25.4361 30.8596C25.4361 32.1482 24.9765 33.2326 24.0572 34.1127C23.1378 34.9928 21.9685 35.4407 20.5492 35.4564ZM20.4283 27.4885H15.2269V34.2306H20.4283C21.4766 34.2306 22.3395 33.9084 23.0169 33.2641C23.7104 32.604 24.0572 31.7946 24.0572 30.836C24.0572 29.8773 23.7104 29.0837 23.0169 28.455C22.3395 27.8107 21.4766 27.4885 20.4283 27.4885Z" fill="black"></path> <path d="M1.85479 42.7642H0.5V26.2627H6.62073C8.10454 26.2627 9.3303 26.7185 10.298 27.63C11.2818 28.5258 11.7737 29.6416 11.7737 30.9774C11.7737 32.3133 11.2818 33.4369 10.298 34.3484C9.3303 35.26 8.10454 35.7157 6.62073 35.7157H1.85479V42.7642ZM1.85479 27.4885V34.4899H6.62073C7.71746 34.4899 8.62065 34.1599 9.3303 33.4998C10.0399 32.824 10.3948 31.9832 10.3948 30.9774C10.3948 29.9716 10.0399 29.1387 9.3303 28.4786C8.62065 27.8186 7.71746 27.4885 6.62073 27.4885H1.85479Z" fill="black"></path> <path d="M160.817 30.52H173.817V43.52H160.817V30.52Z" fill="#FF1D00"></path> </svg> 